<svg width="20" height="21" viewBox="0 0 20 21" fill="none" xmlns="http://www.w3.org/2000/svg">
<path d="M19.983 10.975C19.983 10.3167 19.9247 9.69166 19.8247 9.08333H10.408V12.8417H15.7997C15.558 14.075 14.8497 15.1167 13.7997 15.825V18.325H17.0164C18.8997 16.5833 19.983 14.0167 19.983 10.975Z" fill="#4285F4"/>
<path d="M10.4081 20.75C13.1081 20.75 15.3664 19.85 17.0164 18.325L13.7997 15.825C12.8997 16.425 11.7581 16.7917 10.4081 16.7917C7.79973 16.7917 5.5914 15.0333 4.79973 12.6583H1.48306V15.2333C3.12473 18.5 6.49973 20.75 10.4081 20.75Z" fill="#34A853"/>
<path d="M4.79969 12.6583C4.59135 12.0583 4.48302 11.4167 4.48302 10.75C4.48302 10.0833 4.59969 9.44166 4.79969 8.84166V6.26666H1.48302C0.799686 7.61666 0.40802 9.13333 0.40802 10.75C0.40802 12.3667 0.799686 13.8833 1.48302 15.2333L4.79969 12.6583Z" fill="#FBBC05"/>
<path d="M10.4081 4.70833C11.8831 4.70833 13.1997 5.21667 14.2414 6.20834L17.0914 3.35833C15.3664 1.74167 13.1081 0.75 10.4081 0.75C6.49973 0.75 3.12473 3 1.48306 6.26667L4.79973 8.84167C5.5914 6.46667 7.79973 4.70833 10.4081 4.70833Z" fill="#EA4335"/>
</svg>
