<svg width="497" height="109" viewBox="0 0 497 109" fill="none" xmlns="http://www.w3.org/2000/svg">
<path d="M86.1861 8.49899C86.1861 5.43737 82.4774 3.91199 80.3233 6.08766L33.0683 53.8167C32.4329 54.4584 32.0765 55.325 32.0765 56.228L32.0765 100.467C32.0765 103.529 35.7852 105.054 37.9393 102.879L85.1943 55.1495C85.8297 54.5078 86.1861 53.6413 86.1861 52.7382L86.1861 8.49899Z" fill="#D763FF"/>
<path opacity="0.7" d="M32.0766 8.03384C32.0766 5.03957 28.5067 3.48505 26.3146 5.52478L1.31743 28.7849C0.620652 29.4333 0.224862 30.3422 0.224862 31.294L0.224853 76.2002C0.224853 79.1945 3.79477 80.749 5.98683 78.7093L30.984 55.4491C31.6808 54.8007 32.0766 53.8918 32.0766 52.94L32.0766 8.03384Z" fill="#D763FF"/>
<path d="M140.296 8.45197C140.296 5.39654 136.6 3.86833 134.442 6.03153L87.1871 53.4044C86.5462 54.0469 86.1863 54.9173 86.1863 55.8248L86.1863 99.6978C86.1863 102.753 89.8822 104.281 92.04 102.118L139.295 54.7454C139.936 54.1029 140.296 53.2325 140.296 52.325L140.296 8.45197Z" fill="#D763FF"/>
<path d="M197.916 25.6984H205.299V55.6105C205.299 59.6926 204.02 62.9348 201.461 65.3371C198.922 67.7394 195.563 68.9406 191.383 68.9406C186.93 68.9406 183.493 67.8176 181.071 65.5715C178.649 63.3254 177.438 60.2004 177.438 56.1965H184.821C184.821 58.4621 185.377 60.1711 186.491 61.3234C187.623 62.4562 189.254 63.0226 191.383 63.0226C193.375 63.0226 194.957 62.3683 196.129 61.0598C197.321 59.7316 197.916 57.9055 197.916 55.5812V25.6984ZM212.074 52.2121C212.074 49.1066 212.689 46.3137 213.92 43.8332C215.15 41.3332 216.878 39.4191 219.105 38.091C221.332 36.7433 223.89 36.0695 226.781 36.0695C231.058 36.0695 234.525 37.4465 237.181 40.2004C239.857 42.9543 241.302 46.6066 241.517 51.1574L241.546 52.8273C241.546 55.9523 240.941 58.7453 239.73 61.2062C238.539 63.6672 236.82 65.5715 234.574 66.9191C232.347 68.2668 229.769 68.9406 226.839 68.9406C222.367 68.9406 218.783 67.4562 216.087 64.4875C213.412 61.4992 212.074 57.5246 212.074 52.5637V52.2121ZM219.193 52.8273C219.193 56.0891 219.867 58.6476 221.214 60.5031C222.562 62.3391 224.437 63.257 226.839 63.257C229.242 63.257 231.107 62.3195 232.435 60.4445C233.783 58.5695 234.457 55.8254 234.457 52.2121C234.457 49.009 233.763 46.4699 232.377 44.5949C231.009 42.7199 229.144 41.7824 226.781 41.7824C224.457 41.7824 222.611 42.7101 221.244 44.5656C219.877 46.4016 219.193 49.1555 219.193 52.8273ZM267.071 65.2492C264.981 67.7101 262.012 68.9406 258.165 68.9406C254.727 68.9406 252.12 67.9348 250.343 65.923C248.585 63.9113 247.706 61.0012 247.706 57.1926V36.6555H254.825V57.1047C254.825 61.1281 256.495 63.1398 259.835 63.1398C263.292 63.1398 265.626 61.8996 266.837 59.4191V36.6555H273.956V68.3547H267.247L267.071 65.2492ZM298.103 43.1594C297.166 43.0031 296.199 42.925 295.203 42.925C291.941 42.925 289.744 44.175 288.611 46.675V68.3547H281.492V36.6555H288.289L288.465 40.2004C290.184 37.4465 292.566 36.0695 295.613 36.0695C296.629 36.0695 297.469 36.2062 298.133 36.4797L298.103 43.1594ZM309.507 36.6555L309.712 40.3176C312.056 37.4855 315.132 36.0695 318.941 36.0695C325.542 36.0695 328.902 39.8488 329.019 47.4074V68.3547H321.9V47.8176C321.9 45.8058 321.46 44.3215 320.581 43.3644C319.722 42.3879 318.306 41.8996 316.333 41.8996C313.462 41.8996 311.323 43.1984 309.917 45.7961V68.3547H302.798V36.6555H309.507ZM355.539 68.3547C355.227 67.7492 354.953 66.7629 354.719 65.3957C352.453 67.759 349.68 68.9406 346.399 68.9406C343.215 68.9406 340.618 68.0324 338.606 66.216C336.594 64.3996 335.588 62.1535 335.588 59.4777C335.588 56.0988 336.838 53.5109 339.338 51.7141C341.858 49.8976 345.452 48.9894 350.12 48.9894H354.485V46.9094C354.485 45.2687 354.026 43.9601 353.108 42.9836C352.19 41.9875 350.793 41.4894 348.918 41.4894C347.297 41.4894 345.969 41.8996 344.934 42.7199C343.899 43.5207 343.381 44.5461 343.381 45.7961H336.262C336.262 44.0578 336.838 42.4367 337.991 40.9328C339.143 39.4094 340.705 38.218 342.678 37.3586C344.67 36.4992 346.887 36.0695 349.328 36.0695C353.039 36.0695 355.998 37.007 358.205 38.882C360.412 40.7375 361.545 43.3547 361.604 46.7336V61.0305C361.604 63.882 362.004 66.1574 362.805 67.8566V68.3547H355.539ZM347.717 63.2277C349.123 63.2277 350.442 62.8859 351.672 62.2023C352.922 61.5187 353.86 60.6008 354.485 59.4484V53.4719H350.647C348.01 53.4719 346.028 53.9308 344.7 54.8488C343.371 55.7668 342.707 57.0656 342.707 58.7453C342.707 60.1125 343.157 61.2062 344.055 62.0266C344.973 62.8273 346.194 63.2277 347.717 63.2277ZM376.933 68.3547H369.814V23.3547H376.933V68.3547ZM409.577 58.423H393.053L389.596 68.3547H381.891L398.005 25.6984H404.655L420.798 68.3547H413.063L409.577 58.423ZM395.134 52.4465H407.497L401.315 34.7512L395.134 52.4465ZM451.625 52.8273C451.625 57.7297 450.512 61.6457 448.285 64.5754C446.059 67.4855 443.07 68.9406 439.32 68.9406C435.844 68.9406 433.061 67.798 430.971 65.5129V80.5422H423.852V36.6555H430.414L430.707 39.8781C432.797 37.3391 435.639 36.0695 439.232 36.0695C443.1 36.0695 446.127 37.5148 448.314 40.4055C450.521 43.2766 451.625 47.2707 451.625 52.3879V52.8273ZM444.535 52.2121C444.535 49.048 443.9 46.5383 442.631 44.6828C441.381 42.8273 439.584 41.8996 437.24 41.8996C434.33 41.8996 432.24 43.1008 430.971 45.5031V59.5656C432.26 62.0266 434.369 63.257 437.299 63.257C439.564 63.257 441.332 62.3488 442.602 60.5324C443.891 58.6965 444.535 55.923 444.535 52.2121ZM485.734 52.8273C485.734 57.7297 484.62 61.6457 482.394 64.5754C480.167 67.4855 477.179 68.9406 473.429 68.9406C469.952 68.9406 467.169 67.798 465.079 65.5129V80.5422H457.96V36.6555H464.523L464.816 39.8781C466.905 37.3391 469.747 36.0695 473.341 36.0695C477.208 36.0695 480.236 37.5148 482.423 40.4055C484.63 43.2766 485.734 47.2707 485.734 52.3879V52.8273ZM478.644 52.2121C478.644 49.048 478.009 46.5383 476.739 44.6828C475.489 42.8273 473.693 41.8996 471.349 41.8996C468.439 41.8996 466.349 43.1008 465.079 45.5031V59.5656C466.368 62.0266 468.478 63.257 471.407 63.257C473.673 63.257 475.441 62.3488 476.71 60.5324C477.999 58.6965 478.644 55.923 478.644 52.2121Z" fill="black"/>
</svg>
